Coordinates
version=1
nRows=14
nColumns=24
inDegrees=yes

Units are S.I. units (second, meters, Newtons, ...)
Angles are in degrees.

endheader
time	pelvis_tilt	pelvis_list	pelvis_rotation	pelvis_tx	pelvis_ty	pelvis_tz	hip_flexion_r	hip_adduction_r	hip_rotation_r	knee_angle_r	ankle_angle_r	subtalar_angle_r	mtp_angle_r	hip_flexion_l	hip_adduction_l	hip_rotation_l	knee_angle_l	ankle_angle_l	subtalar_angle_l	mtp_angle_l	lumbar_extension	lumbar_bending	lumbar_rotation
      2.16000000	     -4.93063447	      1.38249108	     -1.51975522	      0.18739995	      0.98767554	     -0.03379285	     11.73827919	    -11.34902305	     -8.55905096	    -57.58948763	     -2.17769168	      0.00000000	      0.00000000	     15.88167855	     -0.18698162	    -10.12727409	    -13.69137831	     -0.19977269	      0.00000000	      0.00000000	     -2.95552147	     -3.12688809	     12.94602722
      2.17000000	     -4.89220715	      1.15984111	     -1.53308872	      0.18745663	      0.98881941	     -0.03503550	     12.53961873	    -11.25658284	     -9.03698887	    -57.78650793	     -0.86644864	      0.00000000	      0.00000000	     15.14086592	     -0.29792211	    -10.16044131	    -13.30231853	      0.11235631	      0.00000000	      0.00000000	     -2.98178102	     -2.88405706	     12.57425594
      2.18000000	     -4.80826556	      0.96620293	     -1.48683013	      0.18732427	      0.98991837	     -0.03628819	     13.28379089	    -11.22852122	     -9.64435309	    -57.85251187	      0.37767802	      0.00000000	      0.00000000	     14.39641589	     -0.36857723	    -10.13911845	    -12.97291278	      0.32151777	      0.00000000	      0.00000000	     -3.09002981	     -2.66881160	     12.13657889
      2.19000000	     -4.78127158	      0.75360228	     -1.47872029	      0.18718606	      0.99091314	     -0.03743962	     14.05811977	    -11.17421778	    -10.26686281	    -57.68159505	      1.29951556	      0.00000000	      0.00000000	     13.65193750	     -0.46741945	    -10.16799994	    -12.52084324	      0.55013479	      0.00000000	      0.00000000	     -3.12602405	     -2.42602909	     11.73622793
      2.20000000	     -4.76926308	      0.55365970	     -1.47436159	      0.18698827	      0.99182029	     -0.03851898	     14.82344846	    -11.14176792	    -10.94020013	    -57.32992222	      2.01269950	      0.00000000	      0.00000000	     12.92026175	     -0.55593132	    -10.23121845	    -12.05037181	      0.76143874	      0.00000000	      0.00000000	     -3.14972775	     -2.19755629	     11.33761216
      2.21000000	     -4.77509068	      0.37164634	     -1.47833211	      0.18667677	      0.99262482	     -0.03950760	     15.58746969	    -11.11883585	    -11.61619738	    -56.79613154	      2.54961149	      0.00000000	      0.00000000	     12.20726672	     -0.63636462	    -10.32358289	    -11.56459620	      0.95910526	      0.00000000	      0.00000000	     -3.17279437	     -1.98587898	     10.94113269
      2.22000000	     -4.79704071	      0.22185778	     -1.54399873	      0.18619593	      0.99329772	     -0.04039584	     16.41341721	    -11.13985778	    -12.29685923	    -56.18109656	      2.84207079	      0.00000000	      0.00000000	     11.54970660	     -0.69194676	    -10.53036636	    -11.16460733	      1.17616942	      0.00000000	      0.00000000	     -3.19798522	     -1.81011008	     10.63655470
      2.23000000	     -4.84604667	      0.07778814	     -1.59755340	      0.18578882	      0.99391578	     -0.04114539	     17.17303319	    -11.11476396	    -12.92198044	    -55.30941511	      3.15014646	      0.00000000	      0.00000000	     10.87907845	     -0.75117199	    -10.66280898	    -10.67566342	      1.37034380	      0.00000000	      0.00000000	     -3.18155345	     -1.64120619	     10.29286746
      2.24000000	     -4.77193326	     -0.20749492	     -1.56919163	      0.18531833	      0.99467609	     -0.04187700	     17.71381705	    -10.93643341	    -13.66359260	    -54.24979187	      3.47838250	      0.00000000	      0.00000000	      9.99733724	     -0.93438070	    -10.50933712	     -9.97324580	      1.29109125	      0.00000000	      0.00000000	     -3.34322898	     -1.31068969	      9.87342768
      2.25000000	     -4.76192089	     -0.36645619	     -1.67417041	      0.18476933	      0.99523612	     -0.04239430	     18.37442237	    -10.85639435	    -14.25284229	    -53.10026524	      3.51857662	      0.00000000	      0.00000000	      9.25102201	     -1.02020536	    -10.67251598	     -9.44873703	      1.43459122	      0.00000000	      0.00000000	     -3.42998205	     -1.12290023	      9.58835324
      2.26000000	     -4.82804147	     -0.40644699	     -1.83095205	      0.18410518	      0.99558985	     -0.04279370	     19.11824510	    -10.85743054	    -14.70589624	    -51.83211470	      3.55156040	      0.00000000	      0.00000000	      8.67976402	     -1.00250910	    -10.88210639	     -9.13325651	      1.63863324	      0.00000000	      0.00000000	     -3.43776751	     -1.06493201	      9.35025177
      2.27000000	     -4.86316837	     -0.67509415	     -1.97768294	      0.18350652	      0.99596956	     -0.04305916	     19.74916536	    -10.59232078	    -15.24671512	    -50.38672034	      3.41097121	      0.00000000	      0.00000000	      7.91057769	     -1.21077312	    -11.02160569	     -8.44815629	      1.71535510	      0.00000000	      0.00000000	     -3.47868696	     -0.74246083	      9.10299197
      2.28000000	     -4.86107599	     -0.88460851	     -2.16287477	      0.18288982	      0.99635786	     -0.04325137	     20.27023096	    -10.33696833	    -15.68255649	    -48.71834251	      3.17919824	      0.00000000	      0.00000000	      7.17387608	     -1.36338951	    -11.17509580	     -7.94286681	      1.79150423	      0.00000000	      0.00000000	     -3.57709187	     -0.47444934	      8.90452257
      2.29000000	     -4.93854864	     -0.86336362	     -2.37076925	      0.18203262	      0.99646684	     -0.04321582	     20.91823042	    -10.28142736	    -15.99007260	    -47.03250497	      3.10222851	      0.00000000	      0.00000000	      6.65978787	     -1.30833503	    -11.29944146	     -7.71095894	      1.97757524	      0.00000000	      0.00000000	     -3.60692896	     -0.50015829	      8.72974815
